<svg width="13" height="24" viewBox="0 0 13 24" fill="none" xmlns="http://www.w3.org/2000/svg">
<path d="M9.19352 16.4543C9.19352 15.7645 8.99156 15.2177 8.58764 14.8139C8.1925 14.4017 7.51638 14.0231 6.55927 13.6782C5.60216 13.3333 4.77676 12.9926 4.08308 12.6562C3.3894 12.3113 2.7923 11.9201 2.29179 11.4826C1.80007 11.0368 1.41371 10.5152 1.13273 9.91798C0.86052 9.32071 0.724417 8.60988 0.724417 7.78549C0.724417 6.36383 1.19858 5.19874 2.14691 4.29022C3.09524 3.3817 4.35529 2.85173 5.92705 2.70032V0H8.03445V2.73817C9.58865 2.94848 10.8048 3.57098 11.6829 4.60568C12.561 5.63197 13 6.9653 13 8.60568H9.19352C9.19352 7.59621 8.974 6.84332 8.53496 6.347C8.10469 5.84227 7.52516 5.58991 6.79635 5.58991C6.07633 5.58991 5.51874 5.78759 5.12361 6.18297C4.72847 6.56993 4.5309 7.10831 4.5309 7.79811C4.5309 8.43743 4.72408 8.95058 5.11044 9.33754C5.49679 9.7245 6.21243 10.1199 7.25735 10.5237C8.31104 10.9274 9.17595 11.3102 9.85208 11.6719C10.5282 12.0252 11.099 12.429 11.5643 12.8833C12.0297 13.3291 12.3853 13.8423 12.6312 14.4227C12.8771 14.9947 13 15.6635 13 16.429C13 17.8591 12.5346 19.02 11.6039 19.9117C10.6731 20.8034 9.39108 21.3291 7.75785 21.489V24H5.66363V21.5016C3.86356 21.3165 2.46741 20.7066 1.47518 19.6719C0.491726 18.6288 0 17.245 0 15.5205H3.80648C3.80648 16.5216 4.05235 17.2913 4.54407 17.8297C5.04458 18.3596 5.76022 18.6246 6.69098 18.6246C7.4637 18.6246 8.07396 18.4311 8.52178 18.0442C8.96961 17.6488 9.19352 17.1188 9.19352 16.4543Z" fill="white"/>
</svg>
