<svg width="22" height="22" viewBox="0 0 22 22" fill="none" xmlns="http://www.w3.org/2000/svg">
<path fill-rule="evenodd" clip-rule="evenodd" d="M21.6638 7.4623C21.2999 5.30798 20.1856 3.4427 18.6162 2.11638C17.0456 0.788712 15.0209 0 12.8382 0V0.0025177C12.4836 0.0025177 12.1961 0.290039 12.1961 0.644699V8.91031C12.193 8.95848 12.1954 9.00783 12.2036 9.05751C12.262 9.40797 12.5935 9.64481 12.944 9.5864L21.1351 8.20267C21.4855 8.14409 21.7222 7.81259 21.6638 7.4623Z" fill="white"/>
<path d="M3.99225 18.3419C3.5785 18.7557 3.61191 19.4392 4.06845 19.8051C5.77595 21.1735 7.9489 22 10.3029 22V21.9971H10.3098C12.5781 21.9971 14.8462 21.2272 16.6887 19.6871C17.0599 19.3766 17.0871 18.8153 16.7449 18.473L10.8842 12.6123C10.5631 12.2914 10.0428 12.2914 9.72186 12.6123L3.99225 18.3419Z" fill="white"/>
<path d="M20.2187 10.9997C20.1789 10.6203 19.8598 10.3419 19.4929 10.3419C19.4488 10.3419 19.4041 10.3459 19.359 10.3543L13.3777 11.4619C12.727 11.5824 12.4782 12.3832 12.9462 12.8512L17.5074 17.4124C17.8841 17.7891 18.5112 17.7115 18.791 17.2582C19.3247 16.3943 19.7299 15.4424 19.9803 14.4298C19.9843 14.4133 19.9882 14.397 19.9922 14.3806C20.0402 14.1825 20.0825 13.983 20.1181 13.7822C20.2793 12.8817 20.318 11.947 20.2187 10.9997Z" fill="white"/>
<path d="M9.39136 11.1195L10.0622 10.4486C10.2163 10.2945 10.3029 10.0856 10.3029 9.86754V2.84047C10.3029 2.43478 9.97328 2.10983 9.57481 2.10983C9.55585 2.10983 9.53671 2.11067 9.51741 2.11201C4.38432 2.51266 0.34375 6.80484 0.34375 12.0408C0.34375 13.9565 0.88472 15.7459 1.82214 17.2645C2.09976 17.7144 2.72684 17.784 3.10063 17.4102L9.39136 11.1195Z" fill="white"/>
</svg>
