<svg width="21" height="29" viewBox="0 0 21 29" fill="none" xmlns="http://www.w3.org/2000/svg">
<path d="M20.8783 10.185L16.2118 5.93147C16.0821 5.82617 15.9404 5.8059 15.7864 5.87073C15.6326 5.93564 15.5554 6.05304 15.5554 6.22326V8.9455H0.388879C0.2754 8.9455 0.182181 8.9819 0.109351 9.05481C0.0365639 9.12768 0 9.2209 0 9.3343V11.6676C0 11.7809 0.0363936 11.8741 0.109309 11.9469C0.182309 12.0198 0.275527 12.0562 0.388837 12.0562H15.5555V14.7784C15.5555 14.9407 15.6329 15.0581 15.7866 15.1308C15.9407 15.1958 16.0824 15.1712 16.2121 15.0581L20.8786 10.7556C20.9596 10.6747 21 10.5776 21 10.4641C21 10.3591 20.9594 10.266 20.8783 10.185Z" fill="white"/>
<path d="M0.121653 18.185L4.7882 13.9315C4.91786 13.8262 5.0596 13.8059 5.21356 13.8707C5.36735 13.9356 5.44457 14.053 5.44457 14.2233V16.9455H20.6111C20.7246 16.9455 20.8178 16.9819 20.8906 17.0548C20.9634 17.1277 21 17.2209 21 17.3343V19.6676C21 19.7809 20.9636 19.8741 20.8907 19.9469C20.8177 20.0198 20.7245 20.0562 20.6112 20.0562H5.44448V22.7784C5.44448 22.9407 5.36714 23.0581 5.21344 23.1308C5.05935 23.1958 4.9176 23.1712 4.78795 23.0581L0.121397 18.7556C0.0403938 18.6747 0 18.5776 0 18.4641C0 18.3591 0.0406494 18.266 0.121653 18.185Z" fill="white"/>
</svg>
