<svg width="25" height="24" viewBox="0 0 25 24" fill="none" xmlns="http://www.w3.org/2000/svg">
<path d="M12.3219 11.5609C13.9763 11.5609 15.4087 10.9913 16.5794 9.86735C17.7498 8.74364 18.3434 7.3687 18.3434 5.78026C18.3434 4.19237 17.75 2.81726 16.5792 1.69317C15.4085 0.56964 13.9761 0 12.3219 0C10.6672 0 9.235 0.56964 8.06446 1.69336C6.89392 2.81707 6.30035 4.19219 6.30035 5.78026C6.30035 7.3687 6.89392 8.74382 8.06446 9.86753C9.23538 10.9911 10.6678 11.5609 12.3219 11.5609ZM9.10053 2.6878C9.9987 1.82556 11.0523 1.40643 12.3219 1.40643C13.5912 1.40643 14.645 1.82556 15.5434 2.6878C16.4415 3.55023 16.8783 4.56188 16.8783 5.78026C16.8783 6.99901 16.4415 8.01048 15.5434 8.87291C14.645 9.73533 13.5912 10.1545 12.3219 10.1545C11.0527 10.1545 9.99908 9.73515 9.10053 8.87291C8.20217 8.01067 7.76539 6.99901 7.76539 5.78026C7.76539 4.56188 8.20217 3.55023 9.10053 2.6878Z" fill="white"/>
<path d="M22.8579 18.4548C22.8241 17.9872 22.7558 17.477 22.6553 16.9383C22.5538 16.3956 22.4232 15.8826 22.2668 15.4136C22.105 14.9289 21.8855 14.4503 21.6137 13.9916C21.332 13.5156 21.0009 13.101 20.6293 12.7599C20.2408 12.403 19.7651 12.1161 19.215 11.9068C18.6668 11.6986 18.0593 11.5931 17.4095 11.5931C17.1543 11.5931 16.9075 11.6937 16.4309 11.9916C16.1375 12.1752 15.7944 12.3876 15.4114 12.6226C15.0839 12.8229 14.6402 13.0106 14.0923 13.1805C13.5576 13.3466 13.0148 13.4308 12.4788 13.4308C11.9432 13.4308 11.4004 13.3466 10.8654 13.1805C10.318 13.0107 9.87415 12.8231 9.54723 12.6227C9.16786 12.39 8.82454 12.1776 8.5268 11.9914C8.05054 11.6935 7.80373 11.593 7.54852 11.593C6.8985 11.593 6.2912 11.6986 5.74322 11.907C5.19352 12.1159 4.71764 12.4028 4.32873 12.7601C3.95718 13.1014 3.62606 13.5157 3.34454 13.9916C3.07312 14.4503 2.85339 14.9288 2.69165 15.4138C2.53544 15.8827 2.40479 16.3956 2.30331 16.9383C2.20261 17.4763 2.13451 17.9866 2.10075 18.4554C2.06757 18.9137 2.05078 19.3907 2.05078 19.8726C2.05078 21.1254 2.46563 22.1396 3.28369 22.8876C4.09164 23.6257 5.16052 24 6.46076 24H18.4984C19.7983 24 20.8672 23.6257 21.6753 22.8876C22.4936 22.1402 22.9084 21.1256 22.9084 19.8724C22.9082 19.3888 22.8912 18.9119 22.8579 18.4548ZM20.6652 21.8686C20.1313 22.3564 19.4225 22.5935 18.4982 22.5935H6.46076C5.53627 22.5935 4.8275 22.3564 4.29382 21.8688C3.77026 21.3904 3.51582 20.7372 3.51582 19.8726C3.51582 19.4229 3.53127 18.9789 3.56216 18.5526C3.5923 18.1344 3.65391 17.675 3.74527 17.1868C3.83549 16.7047 3.95031 16.2522 4.08688 15.8426C4.21791 15.4499 4.39663 15.061 4.61826 14.6863C4.82979 14.3293 5.07317 14.0229 5.34172 13.7761C5.59292 13.5452 5.90954 13.3563 6.28262 13.2145C6.62766 13.0834 7.01542 13.0117 7.43637 13.0009C7.48768 13.027 7.57904 13.077 7.72705 13.1697C8.02822 13.3581 8.37536 13.5731 8.75912 13.8083C9.1917 14.0731 9.74903 14.3123 10.4149 14.5186C11.0956 14.7299 11.7899 14.8372 12.479 14.8372C13.1681 14.8372 13.8626 14.7299 14.543 14.5188C15.2094 14.3121 15.7665 14.0731 16.1997 13.808C16.5924 13.567 16.9298 13.3583 17.231 13.1697C17.379 13.0772 17.4704 13.027 17.5217 13.0009C17.9428 13.0117 18.3306 13.0834 18.6758 13.2145C19.0487 13.3563 19.3653 13.5454 19.6165 13.7761C19.8851 14.0228 20.1284 14.3291 20.34 14.6865C20.5618 15.061 20.7407 15.4501 20.8715 15.8425C21.0083 16.2526 21.1233 16.7049 21.2133 17.1866C21.3045 17.6757 21.3663 18.1353 21.3964 18.5528V18.5531C21.4275 18.9778 21.4432 19.4216 21.4434 19.8726C21.4432 20.7374 21.1887 21.3904 20.6652 21.8686Z" fill="white"/>
</svg>
