<svg width="42" height="42" viewBox="0 0 42 42" fill="none" xmlns="http://www.w3.org/2000/svg">
<circle cx="21" cy="21" r="21" fill="#009DD9"/>
<path d="M21.3219 19.5609C22.9763 19.5609 24.4087 18.9913 25.5794 17.8674C26.7498 16.7436 27.3434 15.3687 27.3434 13.7803C27.3434 12.1924 26.75 10.8173 25.5792 9.69317C24.4085 8.56964 22.9761 8 21.3219 8C19.6672 8 18.235 8.56964 17.0645 9.69336C15.8939 10.8171 15.3004 12.1922 15.3004 13.7803C15.3004 15.3687 15.8939 16.7438 17.0645 17.8675C18.2354 18.9911 19.6678 19.5609 21.3219 19.5609ZM18.1005 10.6878C18.9987 9.82556 20.0523 9.40643 21.3219 9.40643C22.5912 9.40643 23.645 9.82556 24.5434 10.6878C25.4415 11.5502 25.8783 12.5619 25.8783 13.7803C25.8783 14.999 25.4415 16.0105 24.5434 16.8729C23.645 17.7353 22.5912 18.1545 21.3219 18.1545C20.0527 18.1545 18.9991 17.7352 18.1005 16.8729C17.2022 16.0107 16.7654 14.999 16.7654 13.7803C16.7654 12.5619 17.2022 11.5502 18.1005 10.6878Z" fill="white"/>
<path d="M31.8579 26.4548C31.8241 25.9872 31.7558 25.477 31.6553 24.9383C31.5538 24.3956 31.4232 23.8826 31.2668 23.4136C31.105 22.9289 30.8855 22.4503 30.6137 21.9916C30.332 21.5156 30.0009 21.101 29.6293 20.7599C29.2408 20.403 28.7651 20.1161 28.215 19.9068C27.6668 19.6986 27.0593 19.5931 26.4095 19.5931C26.1543 19.5931 25.9075 19.6937 25.4309 19.9916C25.1375 20.1752 24.7944 20.3876 24.4114 20.6226C24.0839 20.8229 23.6402 21.0106 23.0923 21.1805C22.5576 21.3466 22.0148 21.4308 21.4788 21.4308C20.9432 21.4308 20.4004 21.3466 19.8654 21.1805C19.318 21.0107 18.8742 20.8231 18.5472 20.6227C18.1679 20.39 17.8245 20.1776 17.5268 19.9914C17.0505 19.6935 16.8037 19.593 16.5485 19.593C15.8985 19.593 15.2912 19.6986 14.7432 19.907C14.1935 20.1159 13.7176 20.4028 13.3287 20.7601C12.9572 21.1014 12.6261 21.5157 12.3445 21.9916C12.0731 22.4503 11.8534 22.9288 11.6917 23.4138C11.5354 23.8827 11.4048 24.3956 11.3033 24.9383C11.2026 25.4763 11.1345 25.9866 11.1008 26.4554C11.0676 26.9137 11.0508 27.3907 11.0508 27.8726C11.0508 29.1254 11.4656 30.1396 12.2837 30.8876C13.0916 31.6257 14.1605 32 15.4608 32H27.4984C28.7983 32 29.8672 31.6257 30.6753 30.8876C31.4936 30.1402 31.9084 29.1256 31.9084 27.8724C31.9082 27.3888 31.8912 26.9119 31.8579 26.4548ZM29.6652 29.8686C29.1313 30.3564 28.4225 30.5935 27.4982 30.5935H15.4608C14.5363 30.5935 13.8275 30.3564 13.2938 29.8688C12.7703 29.3904 12.5158 28.7372 12.5158 27.8726C12.5158 27.4229 12.5313 26.9789 12.5622 26.5526C12.5923 26.1344 12.6539 25.675 12.7453 25.1868C12.8355 24.7047 12.9503 24.2522 13.0869 23.8426C13.2179 23.4499 13.3966 23.061 13.6183 22.6863C13.8298 22.3293 14.0732 22.0229 14.3417 21.7761C14.5929 21.5452 14.9095 21.3563 15.2826 21.2145C15.6277 21.0834 16.0154 21.0117 16.4364 21.0009C16.4877 21.027 16.579 21.077 16.7271 21.1697C17.0282 21.3581 17.3754 21.5731 17.7591 21.8083C18.1917 22.0731 18.749 22.3123 19.4149 22.5186C20.0956 22.7299 20.7899 22.8372 21.479 22.8372C22.1681 22.8372 22.8626 22.7299 23.543 22.5188C24.2094 22.3121 24.7665 22.0731 25.1997 21.808C25.5924 21.567 25.9298 21.3583 26.231 21.1697C26.379 21.0772 26.4704 21.027 26.5217 21.0009C26.9428 21.0117 27.3306 21.0834 27.6758 21.2145C28.0487 21.3563 28.3653 21.5454 28.6165 21.7761C28.8851 22.0228 29.1284 22.3291 29.34 22.6865C29.5618 23.061 29.7407 23.4501 29.8715 23.8425C30.0083 24.2526 30.1233 24.7049 30.2133 25.1866C30.3045 25.6757 30.3663 26.1353 30.3964 26.5528V26.5531C30.4275 26.9778 30.4432 27.4216 30.4434 27.8726C30.4432 28.7374 30.1887 29.3904 29.6652 29.8686Z" fill="white"/>
</svg>
